<mxfile host="Electron" modified="2023-08-18T09:08:26.209Z" agent="Mozilla/5.0 (Windows NT 10.0; Win64; x64) AppleWebKit/537.36 (KHTML, like Gecko) draw.io/21.6.8 Chrome/114.0.5735.289 Electron/25.5.0 Safari/537.36" etag="72iIVxOlYMvui1yP5iz2" version="21.6.8" type="device">
  <diagram name="Strona-1" id="rYLG7ZTM37PPZOiomr9H">
    <mxGraphModel dx="1100" dy="990" grid="1" gridSize="10" guides="1" tooltips="1" connect="1" arrows="1" fold="1" page="1" pageScale="1" pageWidth="1169" pageHeight="827" math="0" shadow="0">
      <root>
        <mxCell id="0" />
        <mxCell id="1" parent="0" />
        <mxCell id="r0dambI_LH3SWoBfdW6A-1" value="" style="whiteSpace=wrap;html=1;aspect=fixed;" vertex="1" parent="1">
          <mxGeometry x="250" y="340" width="400" height="400" as="geometry" />
        </mxCell>
        <mxCell id="r0dambI_LH3SWoBfdW6A-2" value="noteit application" style="text;html=1;strokeColor=none;fillColor=none;align=center;verticalAlign=middle;whiteSpace=wrap;rounded=0;" vertex="1" parent="1">
          <mxGeometry x="380" y="750" width="170" height="30" as="geometry" />
        </mxCell>
        <mxCell id="r0dambI_LH3SWoBfdW6A-5" style="edgeStyle=orthogonalEdgeStyle;rounded=0;orthogonalLoop=1;jettySize=auto;html=1;exitX=1;exitY=0.5;exitDx=0;exitDy=0;entryX=0.004;entryY=0.547;entryDx=0;entryDy=0;entryPerimeter=0;" edge="1" parent="1" source="r0dambI_LH3SWoBfdW6A-3" target="r0dambI_LH3SWoBfdW6A-4">
          <mxGeometry relative="1" as="geometry" />
        </mxCell>
        <mxCell id="r0dambI_LH3SWoBfdW6A-15" style="edgeStyle=orthogonalEdgeStyle;rounded=0;orthogonalLoop=1;jettySize=auto;html=1;exitX=0;exitY=0.75;exitDx=0;exitDy=0;" edge="1" parent="1" source="r0dambI_LH3SWoBfdW6A-3" target="r0dambI_LH3SWoBfdW6A-14">
          <mxGeometry relative="1" as="geometry" />
        </mxCell>
        <mxCell id="r0dambI_LH3SWoBfdW6A-3" value="Database_Connector" style="whiteSpace=wrap;html=1;aspect=fixed;" vertex="1" parent="1">
          <mxGeometry x="580" y="470" width="170" height="170" as="geometry" />
        </mxCell>
        <mxCell id="r0dambI_LH3SWoBfdW6A-4" value="noteit_database" style="shape=datastore;whiteSpace=wrap;html=1;" vertex="1" parent="1">
          <mxGeometry x="880" y="270" width="200" height="230" as="geometry" />
        </mxCell>
        <mxCell id="r0dambI_LH3SWoBfdW6A-7" value="Spring Boot" style="rounded=0;whiteSpace=wrap;html=1;" vertex="1" parent="1">
          <mxGeometry x="260" y="310" width="380" height="140" as="geometry" />
        </mxCell>
        <mxCell id="r0dambI_LH3SWoBfdW6A-8" value="Tomcat server" style="rounded=0;whiteSpace=wrap;html=1;" vertex="1" parent="1">
          <mxGeometry x="280" y="270" width="340" height="60" as="geometry" />
        </mxCell>
        <mxCell id="r0dambI_LH3SWoBfdW6A-11" style="edgeStyle=orthogonalEdgeStyle;rounded=0;orthogonalLoop=1;jettySize=auto;html=1;exitX=0.5;exitY=0;exitDx=0;exitDy=0;entryX=0.5;entryY=1;entryDx=0;entryDy=0;" edge="1" parent="1" source="r0dambI_LH3SWoBfdW6A-9" target="r0dambI_LH3SWoBfdW6A-10">
          <mxGeometry relative="1" as="geometry" />
        </mxCell>
        <mxCell id="r0dambI_LH3SWoBfdW6A-9" value="Vaadin Framework" style="rounded=0;whiteSpace=wrap;html=1;" vertex="1" parent="1">
          <mxGeometry x="300" y="230" width="300" height="60" as="geometry" />
        </mxCell>
        <mxCell id="r0dambI_LH3SWoBfdW6A-10" value="user" style="shape=actor;whiteSpace=wrap;html=1;" vertex="1" parent="1">
          <mxGeometry x="390" y="50" width="90" height="80" as="geometry" />
        </mxCell>
        <mxCell id="r0dambI_LH3SWoBfdW6A-17" style="edgeStyle=orthogonalEdgeStyle;rounded=0;orthogonalLoop=1;jettySize=auto;html=1;exitX=0.25;exitY=0;exitDx=0;exitDy=0;entryX=0.25;entryY=1;entryDx=0;entryDy=0;" edge="1" parent="1" source="r0dambI_LH3SWoBfdW6A-13" target="r0dambI_LH3SWoBfdW6A-9">
          <mxGeometry relative="1" as="geometry" />
        </mxCell>
        <mxCell id="r0dambI_LH3SWoBfdW6A-13" value="ui web views" style="rounded=0;whiteSpace=wrap;html=1;" vertex="1" parent="1">
          <mxGeometry x="260" y="480" width="300" height="60" as="geometry" />
        </mxCell>
        <mxCell id="r0dambI_LH3SWoBfdW6A-16" style="edgeStyle=orthogonalEdgeStyle;rounded=0;orthogonalLoop=1;jettySize=auto;html=1;exitX=0.25;exitY=0;exitDx=0;exitDy=0;entryX=0.25;entryY=1;entryDx=0;entryDy=0;" edge="1" parent="1" source="r0dambI_LH3SWoBfdW6A-14" target="r0dambI_LH3SWoBfdW6A-13">
          <mxGeometry relative="1" as="geometry" />
        </mxCell>
        <mxCell id="r0dambI_LH3SWoBfdW6A-14" value="noteit obiects" style="rounded=0;whiteSpace=wrap;html=1;" vertex="1" parent="1">
          <mxGeometry x="260" y="660" width="300" height="60" as="geometry" />
        </mxCell>
      </root>
    </mxGraphModel>
  </diagram>
</mxfile>
